<svg width="127" height="96" viewBox="0 0 127 96" fill="none" xmlns="http://www.w3.org/2000/svg">
<path d="M0.649592 63.3854L15.5943 38.2194L30.3907 62.462L15.5754 75.5934L0.649592 63.3854ZM31.6022 63.0533L31.6583 62.9626L43.767 82.2405L16.6611 75.9844L31.5037 63.1689L31.5618 63.1187L31.6022 63.0533ZM31.0975 61.7006L16.1721 37.2465L31.0749 12.1511L45.745 38.1788L45.5391 38.5369L45.5735 38.5389L31.0975 61.7006ZM45.2579 82.7341L32.606 62.5913L58.2754 64.6726L58.2925 64.7097L58.4185 64.9822L58.7181 64.9992L67.687 65.508L65.0578 70.7663L61.1595 77.7565L61.1518 77.7703L61.145 77.7845L52.9403 94.9649L45.9021 83.7595L45.2579 82.7341ZM66.0903 70.9375L68.7742 65.5697L93.9716 66.9992L94.2753 67.0164L94.3801 66.8393L96.6987 66.9592L83.4101 92.5872L66.0903 70.9375ZM65.5977 71.9226L82.5224 93.0785L53.8445 95.4291L65.5977 71.9226ZM32.5128 61.5801L46.3327 39.2216L46.497 39.513L46.5807 39.3665L57.7892 63.6205L32.5128 61.5801ZM107.469 42.7599L93.9458 65.6097L77.6693 44.4538L77.9037 44.1526L81.1095 40.6231L91.4344 41.2287L91.1632 41.6965L91.9675 41.7489L107.469 42.7599ZM79.4573 40.5262L77.1378 43.5084L77.0318 43.6251L76.6299 44.0676L59.4371 62.996L53.449 50.7799L53.4472 50.7764L47.3815 38.645L70.4707 39.9991L79.4573 40.5262ZM46.4654 36.926L32.1006 11.6145L59.5131 14.4022L58.3928 16.3294L58.332 16.2891L58.0666 16.7508L46.4654 36.926ZM124.94 42.8972L109.159 41.868L109.339 41.5641L108.539 41.5015L94.7924 40.4265L93.8385 39.795L93.7599 39.6688L102.148 24.7568L124.94 42.8972ZM101.337 24.146L93.0238 38.487L70.7099 2.66097L101.337 24.146ZM61.1569 13.5642L68.345 1.1987L91.2018 38.0495L59.3737 16.9788L60.9341 14.2481L61.3157 13.5804L61.1569 13.5642ZM59.8703 18.5068L63.9687 21.22L59.947 18.6506L59.8703 18.5068ZM91.8751 40.2358L82.04 39.5987L82.0738 39.5614L81.0289 39.5008L70.7493 38.9049L60.907 20.4506L91.8751 40.2358ZM59.1879 19.3522L69.5798 38.8371L47.611 37.5636L58.3305 18.8045L59.1879 19.3522ZM68.5331 64.501L60.046 63.8129L76.9289 45.2257L92.7931 65.7559L68.5331 64.501Z" fill="white" fill-opacity="0.61" stroke="white"/>
</svg>
