<svg width="185" height="87" viewBox="0 0 185 87" fill="none" xmlns="http://www.w3.org/2000/svg">
<path d="M59.0291 32.5202L34.8528 43.3355L40.4064 24.2605L59.0291 32.5202ZM35.4397 44.1684L59.0726 33.5963L50.2466 49.1771L35.4397 44.1684ZM111.855 51.8872L136.342 60.2936L119.256 65.6548L111.855 51.8872ZM111.995 50.8778L129.074 40.7293L137.045 59.4775L111.995 50.8778ZM35.699 71.4483L34.439 53.8718L51.889 56.3251L35.699 71.4483ZM27.3106 48.9289L29.9485 65.5761L15.1083 60.5561L27.3106 48.9289ZM17.1267 50.2626L2.31993 45.2539L25.9528 34.6817L17.1267 50.2626ZM19.3072 12.5863L36.7572 15.0397L20.5672 30.1628L19.3072 12.5863ZM2.99147 85.3269L1.73145 67.7504L19.1815 70.2038L2.99147 85.3269ZM66.4412 28.3642L65.1812 10.7876L82.6312 13.241L66.4412 28.3642ZM93.803 23.8067L92.543 6.2302L109.993 8.68358L93.803 23.8067ZM93.4227 71.9996L104.5 58.295L115.577 71.9996H93.4227ZM102.665 49.817L93.2289 63.783L85.8108 49.9843L102.665 49.817ZM86.9109 30.0722L111.398 38.4786L94.3123 43.8398L86.9109 30.0722ZM121.624 17.7954L132.702 31.5H110.547L121.624 17.7954ZM71.1244 46.1104L82.2017 59.815H60.0471L71.1244 46.1104ZM145.298 61.5001L156.376 47.7955L167.453 61.5001H145.298ZM161.423 44L172.5 30.2955L183.577 44H161.423ZM145.094 26.0275L148.63 5.25606L157.247 9.67552L145.094 26.0275ZM178 2.91662V21.1749L165.866 0.690013L178 2.91662Z" fill="white" fill-opacity="0.61" stroke="white"/>
</svg>
